<svg xmlns="http://www.w3.org/2000/svg" version="1.1" xmlns:xlink="http://www.w3.org/1999/xlink" xmlns:svgjs="http://svgjs.com/svgjs" width="24" height="24"><svg version="1.1" id="SvgjsSvg1000" xmlns="http://www.w3.org/2000/svg" xmlns:xlink="http://www.w3.org/1999/xlink" x="0px" y="0px" viewBox="0 0 24 24" style="enable-background:new 0 0 24 24;" xml:space="preserve">
<style type="text/css">
	.st0{fill:#0BA5E9;}
	.st1{fill:#0484C7;}
</style>
<path class="st0" d="M12,1c2.2,0,4,1.8,4,4v6c0,2.2-1.8,4-4,4s-4-1.8-4-4V5C8,2.8,9.8,1,12,1z"></path>
<path class="st1" d="M13,18.9V21h3c0.6,0,1,0.4,1,1s-0.4,1-1,1H8c-0.6,0-1-0.4-1-1s0.4-1,1-1h3v-2.1C7,18.4,4,15,4,11
	c0-0.6,0.4-1,1-1s1,0.4,1,1c0,3.3,2.7,6,6,6s6-2.7,6-6c0-0.6,0.4-1,1-1s1,0.4,1,1C20,15,17,18.4,13,18.9z"></path>
</svg><style>@media (prefers-color-scheme: light) { :root { filter: none; } }
@media (prefers-color-scheme: dark) { :root { filter: contrast(1) brightness(30); } }
</style></svg>